# xmcd
#
# Track frame offsets: 
#        150
#        10210
#        25125
#        44112
#        61430
#        77287
#        94422
#        108882
#        122960
#        154292
#        174032
#        199462
#
# Disc length: 2789 seconds
#
# Revision: 0
# Processed by: cddbd v1.5.2PL0 Copyright (c) Steve Scherf et al.
# Submitted via: ExactAudioCopy v1.0b1
#
DISCID=9b0ae30c
DTITLE=Manon Brunet - T'as Qu'a M'suivre
DYEAR=2002
DGENRE=Blues
TTITLE0=L'appel
TTITLE1=T'as Qu'à M'suivre
TTITLE2=O Quotidien
TTITLE3=Déniaise
TTITLE4=Papa Can Sing
TTITLE5=J'sais Pas Si Ça T'fait Ça
TTITLE6=Tomber Debout En Amitié
TTITLE7=Se Sauve Qui Peut
TTITLE8=Le Blues Du Gars D'à Côté
TTITLE9=Queensize
TTITLE10=Chant Pour David
TTITLE11=Going Home
EXTD=
EXTT0=
EXTT1=
EXTT2=
EXTT3=
EXTT4=
EXTT5=
EXTT6=
EXTT7=
EXTT8=
EXTT9=
EXTT10=
EXTT11=
PLAYORDER=
